<svg width="40" height="46" viewBox="0 0 40 46" fill="none" xmlns="http://www.w3.org/2000/svg">
<path d="M18.4661 44.7513C18.2913 45.2751 17.7253 45.5577 17.2014 45.3831C16.6776 45.2084 16.394 44.6423 16.5686 44.1185L18.4661 44.7513ZM21.5706 29.1292C21.7784 28.667 22.3069 28.4286 22.7981 28.5921C23.322 28.7667 23.6054 29.3329 23.4309 29.8568L18.4661 44.7513L17.5178 44.4349L16.5686 44.1185L21.5334 29.2239L21.5706 29.1292ZM28.925 43.5394C28.5057 43.8985 27.8742 43.8502 27.5149 43.431C27.1558 43.0118 27.2044 42.3802 27.6233 42.0208L28.925 43.5394ZM28.3342 33.0374C28.6657 32.64 29.2404 32.5647 29.6604 32.848L29.7424 32.9095L34.7073 37.0472L34.7874 37.1214C34.964 37.3049 35.0647 37.5505 35.0667 37.8079C35.0687 38.1022 34.9414 38.383 34.718 38.5745L28.925 43.5394L28.2747 42.7796L27.6233 42.0208L32.5178 37.8255L28.4622 34.4456L28.387 34.3763C28.0325 34.0141 28.0028 33.4351 28.3342 33.0374ZM11.0745 32.0911C11.4937 31.7318 12.1252 31.7804 12.4846 32.1995C12.8439 32.6188 12.7954 33.2503 12.3762 33.6097L7.48169 37.804L11.5383 41.1839L11.6135 41.2532C11.9679 41.6152 11.9972 42.1944 11.6663 42.5921C11.3348 42.9899 10.7593 43.066 10.3391 42.7825L10.2571 42.721L5.29224 38.5833C5.06639 38.3949 4.9349 38.1157 4.93286 37.8216C4.93102 37.5275 5.05916 37.2474 5.28247 37.056L11.0745 32.0911ZM20.0002 0.538391C24.787 0.538446 29.4036 2.31636 32.9534 5.52765C36.503 8.73894 38.7331 13.1545 39.2112 17.9173H38.6897L30.6575 29.5403L29.0745 28.4398L36.3538 17.9173H31.8352C31.8352 17.2774 31.5815 16.6638 31.1292 16.2112C30.6765 15.7586 30.0622 15.5042 29.4221 15.5042C28.7821 15.5042 28.1687 15.7587 27.7161 16.2112C27.2635 16.6638 27.0091 17.2773 27.009 17.9173H26.179L23.7649 25.6409L21.9309 25.0609L24.1516 17.9173H22.4133C22.4133 17.2773 22.1589 16.6638 21.7063 16.2112C21.2537 15.7587 20.6403 15.5043 20.0002 15.5042C19.3602 15.5042 18.7458 15.7586 18.2932 16.2112C17.8408 16.6638 17.5862 17.2774 17.5862 17.9173H15.8489L18.0696 25.0609L16.2346 25.6409L13.8215 17.9173H13.011C13.0109 17.2774 12.7564 16.6638 12.304 16.2112C11.8513 15.7586 11.237 15.5042 10.5969 15.5042C9.95693 15.5043 9.34342 15.7587 8.89087 16.2112C8.43833 16.6638 8.18388 17.2773 8.18384 17.9173H3.60767L10.887 28.4398L9.30396 29.5403L1.27173 17.9173H0.789307C1.26743 13.1545 3.49735 8.73895 7.04712 5.52765C10.5969 2.31631 15.2134 0.538391 20.0002 0.538391Z" fill="#234333"/>
</svg>
