<svg width="46" height="45" viewBox="0 0 46 45" fill="none" xmlns="http://www.w3.org/2000/svg">
<path d="M8.20668 0.35139C8.44059 0.555228 8.60053 0.830704 8.66157 1.13491C8.72262 1.43911 8.68134 1.75497 8.54418 2.03327C8.5192 2.1153 8.50687 2.20065 8.50761 2.28639C8.50761 2.46358 8.55262 2.80108 8.9773 3.22296C9.18262 3.42827 9.34012 3.57452 9.51168 3.73484C9.65231 3.86421 9.80137 3.99921 9.98981 4.18484C10.3554 4.53359 10.7407 4.94421 11.0867 5.4589C11.8039 6.53609 12.2004 7.88328 12.2004 9.8436C12.2004 13.978 9.45262 16.8749 6.57542 16.8749C3.69823 16.8749 0.950409 13.978 0.950409 9.8436C0.950409 8.92672 1.1951 7.83266 1.5326 6.82297C1.8701 5.81328 2.3426 4.76421 2.88823 3.92046C3.53791 2.82358 4.45198 1.90389 5.16073 1.28514C5.55073 0.945122 5.95616 0.623219 6.37573 0.320452L6.49949 0.236077C6.75738 0.0641673 7.06485 -0.0177266 7.37408 0.00312663C7.68332 0.0239799 7.9742 0.146412 8.20668 0.35139ZM6.57542 19.6874C8.29522 19.6849 9.96246 19.0945 11.3004 18.0139C11.4336 18.4096 11.5461 18.808 11.6379 19.2092C12.2004 21.6561 12.2004 24.598 12.2004 26.6483V26.7186C12.2004 34.5571 11.1345 39.0037 9.96168 41.5462C9.37105 42.8259 8.74387 43.6415 8.20105 44.1534C7.98007 44.3647 7.73677 44.5515 7.47543 44.7103C7.35559 44.7823 7.23056 44.8453 7.10136 44.8987C7.10136 44.8987 6.78355 44.9999 6.57542 44.9999C6.3673 44.9999 6.04948 44.8987 6.04948 44.8987C5.92029 44.8453 5.79525 44.7823 5.67542 44.7103C5.41408 44.5515 5.17077 44.3647 4.94979 44.1534C4.40698 43.6387 3.77979 42.8259 3.18916 41.5462C2.01635 39.0037 0.950409 34.5571 0.950409 26.7186V26.6483C0.950409 24.5952 0.950409 21.6561 1.51291 19.2092C1.60479 18.808 1.71729 18.4096 1.85041 18.0139C3.18838 19.0945 4.85563 19.6849 6.57542 19.6874ZM20.638 30.9374C18.627 30.9374 16.7117 30.5155 14.9848 29.7562C15.0223 28.7549 15.0411 27.7143 15.0411 26.6343C16.7446 27.6111 18.6742 28.125 20.638 28.1249V22.4999C20.638 21.008 21.2306 19.5773 22.2855 18.5224C23.3404 17.4675 24.7711 16.8749 26.263 16.8749H31.888C31.8883 14.8772 31.3566 12.9155 30.3477 11.1913C29.3387 9.4672 27.8889 8.0428 26.1471 7.06453C24.4054 6.08627 22.4346 5.58943 20.4372 5.62508C18.4399 5.66072 16.488 6.22756 14.7823 7.26734C14.607 6.3236 14.2863 5.41277 13.8317 4.56734C15.9728 3.38312 18.3857 2.77801 20.8323 2.81182C23.2788 2.84562 25.6741 3.51717 27.7816 4.7601C29.8892 6.00303 31.6359 7.77433 32.8493 9.89898C34.0627 12.0236 34.7008 14.4281 34.7005 16.8749H40.3255C41.8174 16.8749 43.2481 17.4675 44.303 18.5224C45.3579 19.5773 45.9505 21.008 45.9505 22.4999V36.5624C45.9505 38.0543 45.3579 39.485 44.303 40.5399C43.2481 41.5948 41.8174 42.1874 40.3255 42.1874H26.263C24.7711 42.1874 23.3404 41.5948 22.2855 40.5399C21.2306 39.485 20.638 38.0543 20.638 36.5624V30.9374ZM34.4192 19.6874C33.8647 22.3884 32.5298 24.8673 30.5801 26.817C28.6304 28.7668 26.1515 30.1016 23.4505 30.6562V36.5624C23.4505 37.3083 23.7468 38.0237 24.2742 38.5512C24.8017 39.0786 25.517 39.3749 26.263 39.3749H40.3255C41.0714 39.3749 41.7868 39.0786 42.3143 38.5512C42.8417 38.0237 43.138 37.3083 43.138 36.5624V22.4999C43.138 21.754 42.8417 21.0386 42.3143 20.5111C41.7868 19.9837 41.0714 19.6874 40.3255 19.6874H34.4192ZM31.5336 19.6874H26.263C25.517 19.6874 24.8017 19.9837 24.2742 20.5111C23.7468 21.0386 23.4505 21.754 23.4505 22.4999V27.7705C25.3958 27.2656 27.1709 26.2501 28.592 24.8289C30.0131 23.4078 31.0287 21.6327 31.5336 19.6874Z" fill="#234333"/>
</svg>
