<svg width="45" height="46" viewBox="0 0 45 46" fill="none" xmlns="http://www.w3.org/2000/svg">
<path d="M41.5856 -6.10352e-05C41.9035 6.03883e-05 42.2082 0.12684 42.4332 0.351501C42.6583 0.576395 42.7855 0.88193 42.7858 1.20013V21.9286L43.1285 21.7177C43.2346 21.6583 43.3342 21.6103 43.4332 21.5742C44.1128 21.3287 44.5409 21.3275 44.8502 21.5742C45.1551 21.8214 44.9094 22.2406 44.8502 22.4931C44.7882 22.745 43.9851 24.5309 40.9713 26.4374C37.9533 28.3436 35.0621 29.6396 35.0621 29.6396C35.0695 29.6624 36.964 35.4961 35.1832 39.9189C33.3972 44.3511 29.7033 45.3973 27.858 45.3974C26.0129 45.3974 23.329 44.0475 23.3287 41.5224V32.5732C24.0313 32.7228 24.8835 32.8554 25.7623 32.8554C27.1997 32.8553 28.3473 32.3894 29.3248 31.6982L29.5875 31.5038C28.5537 32.3006 27.3301 32.8539 25.7614 32.8535C24.8825 32.8535 24.0304 32.7218 23.3278 32.5722C22.354 32.3646 21.6725 32.1161 21.6725 32.1161V41.6562C21.6725 44.1797 18.9892 45.538 17.1422 45.538C15.2958 45.538 11.6019 44.4876 9.81702 40.0556C8.03007 35.623 9.93909 29.7763 9.93909 29.7763C9.93909 29.7763 7.04489 28.4846 4.02991 26.5761C3.61522 26.314 3.21433 26.0308 2.82679 25.7304C2.85322 25.7508 2.87931 25.7717 2.90589 25.7919C2.63864 25.7021 2.42403 25.5212 2.27796 25.287C2.39664 25.3881 2.51748 25.4866 2.63929 25.5839C2.51743 25.4864 2.39684 25.3873 2.27796 25.2861C0.691864 23.9228 0.198669 22.8237 0.151005 22.6308C0.0894979 22.3794 -0.155346 21.9591 0.151005 21.7119C0.459114 21.466 0.890617 21.4659 1.56702 21.7119C1.73135 21.771 1.89192 21.8614 2.08167 21.9814V1.20013C2.08167 0.539043 2.61981 0.000111931 3.28382 -6.10352e-05H41.5856ZM30.5641 30.6367C30.3329 30.8678 30.0933 31.0909 29.8424 31.2997L30.0895 31.0869C30.252 30.942 30.4099 30.7917 30.5641 30.6376C30.641 30.5606 30.717 30.4789 30.7916 30.3935L30.5641 30.6367ZM31.4137 29.5439C31.2886 29.746 31.1532 29.9425 31.0104 30.1269L31.2194 29.8427C31.2866 29.7455 31.3513 29.6457 31.4137 29.5449V29.5439ZM32.1959 27.3593C32.1997 27.7132 32.0861 28.1564 31.8932 28.6181L32.0104 28.3144C32.1315 27.9646 32.1988 27.6354 32.1959 27.3603V27.3593ZM23.7643 26.373C23.7207 26.4044 23.679 26.4394 23.6403 26.4785L23.7643 26.374C23.8077 26.3427 23.8524 26.3143 23.8981 26.29L23.7643 26.373ZM4.48499 23.4716L5.20765 23.8661C5.44998 23.9949 5.69378 24.1211 5.93909 24.2441C6.22048 24.3854 6.4976 24.5086 6.77308 24.6328L38.5875 24.3281C35.7075 25.6842 33.1159 26.1247 33.0914 26.1288H24.4713C24.3896 26.1289 24.2182 26.1541 24.0358 26.2265L24.1696 26.1816C24.2985 26.144 24.4101 26.1298 24.4713 26.1298H33.0914C33.1101 26.1267 35.7043 25.6867 38.5875 24.329C38.7466 24.2522 38.9022 24.1868 39.0631 24.1064C39.5764 23.8492 39.9998 23.6191 40.3883 23.4062C40.7031 23.2317 40.9815 23.0713 41.2291 22.9238L41.8854 22.5204C41.5013 22.7646 41.0174 23.0573 40.3883 23.4062V2.40228H4.48499V23.4716ZM8.26624 25.2411C8.42509 25.2997 8.58141 25.3544 8.73401 25.4072L8.26722 25.2411C8.10817 25.1826 7.94619 25.1211 7.78186 25.0566L8.26624 25.2411ZM16.316 13.5322C19.2748 13.5322 21.6734 15.9316 21.6735 18.8886C21.6735 21.8451 19.2749 24.2441 16.316 24.2441C13.3586 24.2439 10.9625 21.8449 10.9625 18.8886C10.9626 15.9317 13.3592 13.5324 16.316 13.5322ZM29.0162 13.5322C31.9719 13.5324 34.3697 15.9317 34.3698 18.8886C34.3698 21.8449 31.9719 24.2439 29.0162 24.2441C26.0574 24.2441 23.6588 21.8451 23.6588 18.8886C23.6593 17.4682 24.2237 16.1059 25.2282 15.1015C26.2327 14.0971 27.5957 13.5325 29.0162 13.5322Z" fill="#234333"/>
</svg>
