<svg width="49" height="45" viewBox="0 0 49 45" fill="none" xmlns="http://www.w3.org/2000/svg">
<path d="M0.643646 8.43768C0.643646 6.19985 1.53262 4.05368 3.115 2.47129C4.69738 0.888912 6.84355 -6.10352e-05 9.08138 -6.10352e-05H31.582C33.8198 -6.10352e-05 35.966 0.888912 37.5484 2.47129C39.1308 4.05368 40.0197 6.19985 40.0197 8.43768V14.1472C39.0855 14.039 38.1422 14.0352 37.2072 14.136V11.2503H3.45622V30.9383C3.45622 32.4302 4.04887 33.861 5.10379 34.9159C6.15872 35.9708 7.5895 36.5635 9.08138 36.5635H18.9029C18.2851 37.3975 17.8596 38.358 17.6569 39.376H9.08138C6.84355 39.376 4.69738 38.4871 3.115 36.9047C1.53262 35.3223 0.643646 33.1761 0.643646 30.9383V8.43768ZM28.8932 18.5264L24.8431 14.4763C24.5794 14.2122 24.2216 14.0637 23.8484 14.0635C23.4752 14.0632 23.1172 14.2112 22.8532 14.4749C22.5891 14.7386 22.4406 15.0964 22.4403 15.4695C22.4401 15.8427 22.5881 16.2007 22.8518 16.4648L27.29 20.9002C27.725 20.0621 28.2594 19.2708 28.8932 18.5264ZM9.08138 2.81252C7.5895 2.81252 6.15872 3.40517 5.10379 4.46009C4.04887 5.51501 3.45622 6.94579 3.45622 8.43768H37.2072C37.2072 6.94579 36.6145 5.51501 35.5596 4.46009C34.5047 3.40517 33.0739 2.81252 31.582 2.81252H9.08138ZM17.8116 16.4648C18.0757 16.2007 18.224 15.8426 18.224 15.4691C18.224 15.0957 18.0757 14.7375 17.8116 14.4735C17.5476 14.2094 17.1894 14.0611 16.816 14.0611C16.4425 14.0611 16.0844 14.2094 15.8203 14.4735L8.78887 21.5049C8.65791 21.6355 8.55401 21.7907 8.48311 21.9616C8.41222 22.1324 8.37572 22.3156 8.37572 22.5006C8.37572 22.6855 8.41222 22.8687 8.48311 23.0396C8.55401 23.2104 8.65791 23.3656 8.78887 23.4962L15.8203 30.5277C16.0844 30.7917 16.4425 30.9401 16.816 30.9401C17.1894 30.9401 17.5476 30.7917 17.8116 30.5277C18.0757 30.2636 18.224 29.9055 18.224 29.532C18.224 29.1586 18.0757 28.8004 17.8116 28.5364L11.773 22.5006L17.8116 16.4648ZM39.716 16.9429C40.7454 17.061 41.0407 18.293 40.3066 19.0298L37.5644 21.7721C37.1706 22.1658 36.8583 22.6333 36.6452 23.1477C36.4321 23.6621 36.3225 24.2135 36.3225 24.7703C36.3225 25.3271 36.4321 25.8785 36.6452 26.3929C36.8583 26.9074 37.1706 27.3748 37.5644 27.7685C37.9581 28.1623 38.4255 28.4746 38.94 28.6877C39.4544 28.9008 40.0058 29.0104 40.5626 29.0104C41.1194 29.0104 41.6708 28.9008 42.1852 28.6877C42.6996 28.4746 43.1671 28.1623 43.5608 27.7685L46.303 25.0263C47.0371 24.2922 48.2719 24.5875 48.39 25.6169C48.5859 27.2884 48.3522 28.9823 47.711 30.5383C47.0698 32.0943 46.0423 33.4611 44.7257 34.5094C43.4091 35.5577 41.8469 36.2528 40.1868 36.529C38.5266 36.8053 36.8235 36.6535 35.2384 36.0881L27.5713 43.758C27.1775 44.1518 26.7101 44.4641 26.1957 44.6772C25.6812 44.8903 25.1299 44.9999 24.5731 44.9999C24.0162 44.9999 23.4649 44.8903 22.9504 44.6772C22.436 44.4641 21.9686 44.1518 21.5749 43.758C21.1811 43.3643 20.8688 42.8969 20.6557 42.3824C20.4426 41.868 20.333 41.3167 20.333 40.7598C20.333 40.203 20.4426 39.6516 20.6557 39.1372C20.8688 38.6228 21.1811 38.1554 21.5749 37.7616L29.2419 30.0945C28.6764 28.5092 28.5246 26.8057 28.801 25.1453C29.0774 23.4849 29.7728 21.9225 30.8214 20.6058C31.87 19.2891 33.2372 18.2617 34.7936 17.6207C36.35 16.9798 38.0443 16.7465 39.716 16.9429Z" fill="#234333"/>
</svg>
